<?xml version="1.0" encoding="iso-8859-1"?>
<!-- Generator: Adobe Illustrator 19.0.0, SVG Export Plug-In . SVG Version: 6.00 Build 0)  -->
<svg version="1.1" id="Capa_1" xmlns="http://www.w3.org/2000/svg" xmlns:xlink="http://www.w3.org/1999/xlink" x="0px" y="0px"
	 viewBox="0 0 512 512" style="enable-background:new 0 0 512 512;" xml:space="preserve">
<path style="fill:#303C42;" d="M256,0C114.833,0,0,114.844,0,256s114.833,256,256,256s256-114.844,256-256S397.167,0,256,0z"/>
<path style="fill:#5C6671;" d="M490.667,256c0,12.01-1.193,23.72-2.941,35.25l-22.788-13.156c-9.833-5.688-21.333-7.167-32.375-4.26
	c-11,2.948-20.208,10.01-25.896,19.885L364,367.615c-11.75,20.365-4.75,46.51,15.604,58.292l22.823,13.169
	c-18.322,14.682-38.895,26.586-61.094,35.293V448c0-23.531-19.146-42.667-42.667-42.667h-85.333
	c-23.521,0-42.667,19.135-42.667,42.667v26.368c-22.201-8.707-42.775-20.609-61.096-35.294l22.826-13.178
	c20.354-11.771,27.354-37.917,15.604-58.281l-42.667-73.896c-5.687-9.875-14.896-16.938-25.896-19.885
	c-11.042-2.917-22.521-1.427-32.375,4.26L24.275,291.25c-1.749-11.53-2.941-23.24-2.941-35.25c0-12.01,1.193-23.72,2.941-35.25
	l22.788,13.156c6.563,3.792,13.854,5.729,21.25,5.729c3.708,0,7.438-0.49,11.125-1.469c11-2.948,20.208-10.01,25.896-19.885
	L148,144.385c11.75-20.365,4.75-46.51-15.604-58.292l-22.823-13.169c18.322-14.682,38.895-26.586,61.094-35.293V64
	c0,23.531,19.146,42.667,42.667,42.667h85.333c23.521,0,42.667-19.135,42.667-42.667V37.632
	c22.201,8.707,42.775,20.609,61.096,35.294l-22.826,13.178C359.25,97.875,352.25,124.021,364,144.385l42.667,73.896
	c5.688,9.875,14.896,16.938,25.896,19.885c3.688,0.979,7.417,1.469,11.125,1.469c7.396,0,14.688-1.938,21.25-5.729l22.788-13.156
	C489.474,232.28,490.667,243.99,490.667,256z"/>
<path style="fill:#FFFFFF;" d="M483.289,198.674l-29.018,16.753c-4.958,2.844-10.646,3.583-16.188,2.135
	c-5.5-1.479-10.104-5.01-12.958-9.948l-42.646-73.896c-5.896-10.188-2.375-23.26,7.792-29.146l29.031-16.753
	C450.039,117.673,472.478,155.855,483.289,198.674z"/>
<circle style="fill:#303C42;" cx="256" cy="256" r="128"/>
<circle style="fill:#FFCA28;" cx="256" cy="256" r="106.667"/>
<path style="fill:#303C42;" d="M250.667,213.333H288c5.896,0,10.667-4.771,10.667-10.667S293.896,192,288,192h-21.333v-10.667
	c0-5.896-4.771-10.667-10.667-10.667c-5.896,0-10.667,4.771-10.667,10.667v11.206c-18.046,2.615-32,18.036-32,36.794
	c0,20.583,16.75,37.333,37.333,37.333h10.667c8.813,0,16,7.177,16,16c0,8.823-7.188,16-16,16H224
	c-5.896,0-10.667,4.771-10.667,10.667S218.104,320,224,320h21.333v10.667c0,5.896,4.771,10.667,10.667,10.667
	c5.896,0,10.667-4.771,10.667-10.667v-11.206c18.046-2.615,32-18.036,32-36.794c0-20.583-16.75-37.333-37.333-37.333h-10.667
	c-8.813,0-16-7.177-16-16C234.667,220.51,241.854,213.333,250.667,213.333z"/>
<g>
	<path style="fill:#FFFFFF;" d="M320,30.431V64c0,11.76-9.563,21.333-21.333,21.333h-85.333C201.563,85.333,192,75.76,192,64V30.431
		c20.376-5.792,41.792-9.098,64-9.098S299.624,24.639,320,30.431z"/>
	<path style="fill:#FFFFFF;" d="M419.301,424.18l-29.03-16.742c-10.167-5.896-13.688-18.969-7.813-29.156l42.688-73.896
		c2.833-4.938,7.438-8.469,12.938-9.948c5.563-1.458,11.25-0.719,16.188,2.135l29.018,16.753
		C472.478,356.146,450.039,394.327,419.301,424.18z"/>
	<path style="fill:#FFFFFF;" d="M92.699,87.82l29.03,16.742c10.167,5.896,13.688,18.969,7.813,29.156l-42.688,73.896
		c-2.833,4.938-7.438,8.469-12.938,9.948c-5.521,1.479-11.229,0.719-16.188-2.135l-29.018-16.753
		C39.522,155.854,61.961,117.673,92.699,87.82z"/>
	<path style="fill:#FFFFFF;" d="M28.711,313.326l29.018-16.753c4.937-2.865,10.646-3.625,16.188-2.135
		c5.5,1.479,10.104,5.01,12.958,9.948l42.646,73.896c5.896,10.188,2.375,23.26-7.792,29.146L92.698,424.18
		C61.961,394.327,39.522,356.145,28.711,313.326z"/>
	<path style="fill:#FFFFFF;" d="M192,481.569V448c0-11.76,9.563-21.333,21.333-21.333h85.333C310.438,426.667,320,436.24,320,448
		v33.569c-20.376,5.792-41.792,9.098-64,9.098S212.376,487.361,192,481.569z"/>
</g>
<linearGradient id="SVGID_1_" gradientUnits="userSpaceOnUse" x1="-34.6918" y1="634.4721" x2="-26.9813" y2="626.7606" gradientTransform="matrix(21.3333 0 0 -21.3333 996.3334 13791.667)">
	<stop  offset="0" style="stop-color:#000000;stop-opacity:0.1"/>
	<stop  offset="1" style="stop-color:#000000;stop-opacity:0"/>
</linearGradient>
<path style="fill:url(#SVGID_1_);" d="M347.237,166.376C369.941,189.486,384,221.118,384,256c0,70.583-57.417,128-128,128
	c-35.167,0-67.053-14.264-90.211-37.297l58.63,58.63h74.247c23.521,0,42.667,19.135,42.667,42.667v26.368
	c22.199-8.707,42.772-20.611,61.094-35.293l-22.823-13.169C359.25,414.125,352.25,387.979,364,367.615l42.667-73.896
	c5.688-9.875,14.896-16.938,25.896-19.885c7.478-1.969,15.132-1.76,22.371,0.24L347.237,166.376z"/>
<linearGradient id="SVGID_2_" gradientUnits="userSpaceOnUse" x1="-45.5785" y1="639.5551" x2="-23.8277" y2="629.4137" gradientTransform="matrix(21.3333 0 0 -21.3333 996.3334 13791.667)">
	<stop  offset="0" style="stop-color:#FFFFFF;stop-opacity:0.2"/>
	<stop  offset="1" style="stop-color:#FFFFFF;stop-opacity:0"/>
</linearGradient>
<path style="fill:url(#SVGID_2_);" d="M256,0C114.833,0,0,114.844,0,256s114.833,256,256,256s256-114.844,256-256S397.167,0,256,0z"
	/>
<g>
</g>
<g>
</g>
<g>
</g>
<g>
</g>
<g>
</g>
<g>
</g>
<g>
</g>
<g>
</g>
<g>
</g>
<g>
</g>
<g>
</g>
<g>
</g>
<g>
</g>
<g>
</g>
<g>
</g>
</svg>
