<svg height="512pt" viewBox="0 0 512 512" width="512pt" xmlns="http://www.w3.org/2000/svg"><path d="m301 0h30v90h-30zm0 0"/><path d="m121 0v150h270v-150h-30v120h-90v-120zm0 0"/><path d="m121 421h270v91h-270zm0 0"/><path d="m256 241c-24.8125 0-45 20.1875-45 45s20.1875 45 45 45 45-20.1875 45-45-20.1875-45-45-45zm15 60h-30v-30h30zm0 0"/><path d="m421 180h-330v-180h-91v512h91v-121h330v121h91v-413.210938l-91-90zm-165 181c-41.351562 0-75-33.648438-75-75s33.648438-75 75-75 75 33.648438 75 75-33.648438 75-75 75zm0 0"/></svg>