<?xml version="1.0" encoding="UTF-8" standalone="no"?>
<!DOCTYPE svg PUBLIC "-//W3C//DTD SVG 1.1//EN" "http://www.w3.org/Graphics/SVG/1.1/DTD/svg11.dtd">
<svg  version="1.1" xmlns="http://www.w3.org/2000/svg" xmlns:xlink="http://www.w3.org/1999/xlink" preserveAspectRatio="xMidYMid meet" viewBox="0 0 36 36" ><defs><path d="M10.28 4.41C8.69 8.38 9.63 12.43 13.11 16.56C17.65 20.48 20.6 23.83 21.97 26.61C23.33 29.4 22.81 31.92 20.41 34.19C18.7 34.83 16.95 34.92 15.16 34.44C13.37 33.96 11.84 32.61 10.56 30.39L10.09 28.97L9.66 28.97L9.26 31.94L1.52 27.58L1.52 9.01C6.31 6.29 9.23 4.75 10.28 4.41Z" id="a6m1t53OdG"></path><path d="M24.76 6.12L24.89 5.28L25.02 3.92L34.48 9.28L34.48 27.53C33.19 28.57 30.35 30.16 25.99 32.29C28.47 27.48 26.83 22.61 21.07 17.7C16.95 14.22 14.42 11.27 13.48 8.84C13.19 4.8 14.34 2.75 16.61 2.21C17.97 1.89 19.74 1.83 21.84 3.01C22.79 3.55 23.6 4.59 24.27 6.12" id="a4o0doDQbn"></path></defs><g><g><g><g><use xlink:href="#a6m1t53OdG" opacity="1"  fill-opacity="1"></use><g><use xlink:href="#a6m1t53OdG" opacity="1" fill-opacity="0" stroke="#000000" stroke-width="0" stroke-opacity="1"></use></g></g><g><use xlink:href="#a4o0doDQbn" opacity="1"  fill-opacity="1"></use><g><use xlink:href="#a4o0doDQbn" opacity="1" fill-opacity="0" stroke="#000000" stroke-width="0" stroke-opacity="1"></use></g></g></g></g></g></svg>