<svg xmlns="http://www.w3.org/2000/svg" xmlns:xlink="http://www.w3.org/1999/xlink" version="1.1" preserveAspectRatio="xMidYMid meet" viewBox="0 0 420 420" width="120" height="120">
    <defs>
        <path d="M119.39 59.66L118.32 63L117.36 66.34L116.51 69.68L115.76 73.02L115.12 76.37L114.59 79.72L114.16 83.08L113.83 86.44L113.62 89.8L113.51 93.16L113.5 96.53L113.6 99.91L113.81 103.28L114.12 106.66L114.54 110.04L115.06 113.43L115.7 116.82L116.43 120.21L117.28 123.6L118.22 127L119.28 130.4L120.44 133.81L121.71 137.22L123.08 140.63L124.56 144.05L126.15 147.47L127.84 150.89L129.63 154.32L131.54 157.75L133.55 161.18L135.66 164.61L137.88 168.05L140.21 171.5L142.64 174.94L145.18 178.39L147.83 181.85L150.58 185.3L153.44 188.76L157.21 192.03L160.91 195.28L164.55 198.5L168.12 201.7L171.62 204.88L175.06 208.03L178.43 211.16L181.74 214.26L184.98 217.34L188.15 220.4L191.25 223.43L194.29 226.44L197.27 229.42L200.17 232.38L203.01 235.32L205.79 238.24L208.49 241.13L211.13 243.99L213.71 246.83L216.21 249.65L218.65 252.45L221.03 255.22L223.34 257.97L225.58 260.69L227.75 263.39L229.86 266.06L231.9 268.72L233.88 271.34L235.79 273.95L237.63 276.53L239.4 279.09L241.11 281.62L242.76 284.13L244.33 286.61L245.84 289.07L247.29 291.51L248.66 293.93L249.98 296.32L251.22 298.68L252.4 301.03L254.03 304.47L255.52 307.81L256.85 311.05L258.03 314.18L259.06 317.22L259.96 320.17L260.72 323.02L261.35 325.79L261.84 328.46L262.21 331.06L262.46 333.56L262.6 335.99L262.61 338.34L262.52 340.62L262.32 342.82L262.02 344.95L261.62 347.01L261.13 349L260.55 350.93L259.87 352.8L259.12 354.61L258.28 356.37L257.37 358.06L256.39 359.71L255.34 361.31L254.22 362.86L253.04 364.36L251.81 365.83L250.52 367.25L249.19 368.63L247.81 369.98L246.38 371.3L244.93 372.58L243.43 373.84L241.91 375.07L240.36 376.28L238.78 377.46L237.19 378.63L235.59 379.78L233.97 380.92L232.38 382.02L230.84 383.07L229.35 384.06L227.92 385L226.52 385.89L225.16 386.73L223.85 387.51L222.56 388.25L221.3 388.93L220.07 389.57L218.86 390.16L217.66 390.69L216.48 391.18L215.32 391.62L214.15 392.02L212.99 392.37L211.83 392.67L210.67 392.93L209.5 393.15L208.31 393.32L207.11 393.44L205.89 393.53L204.64 393.57L203.37 393.57L202.07 393.53L200.74 393.45L199.37 393.33L197.95 393.17L196.49 392.97L194.98 392.74L193.42 392.46L191.8 392.15L190.12 391.81L188.38 391.43L186.57 391.01L184.69 390.56L182.73 390.07L180.69 389.55L178.58 389L176.37 388.41L174.88 388L173.39 387.54L171.92 387.05L170.46 386.52L169.01 385.96L167.57 385.36L166.14 384.72L164.72 384.04L163.32 383.33L161.92 382.59L160.53 381.8L159.16 380.98L157.79 380.13L156.44 379.23L155.1 378.3L153.77 377.34L152.45 376.33L151.14 375.29L149.84 374.22L148.55 373.11L147.27 371.96L146 370.77L144.75 369.55L143.5 368.29L142.27 367L141.04 365.67L139.83 364.3L138.63 362.89L137.44 361.45L136.26 359.98L135.09 358.46L133.93 356.91L132.78 355.33L131.65 353.7L130.52 352.04L129.4 350.35L128.3 348.61L127.21 346.84L126.12 345.04L125.05 343.2L119.76 327.29L114.91 327.29L110.47 360.55L24.05 311.77L24.05 104.42L28.03 102.17L31.93 99.96L35.75 97.81L39.49 95.7L43.15 93.65L46.73 91.64L50.24 89.68L53.67 87.78L57.01 85.92L60.28 84.11L63.47 82.35L66.59 80.65L69.62 78.99L72.58 77.38L75.45 75.82L78.25 74.31L80.97 72.85L83.61 71.44L86.18 70.08L88.66 68.77L91.06 67.51L93.39 66.3L95.64 65.14L97.81 64.03L99.9 62.96L101.91 61.95L103.85 60.99L105.7 60.08L107.48 59.21L109.18 58.4L110.8 57.64L112.34 56.92L113.8 56.26L115.18 55.65L116.49 55.08L117.72 54.57L118.86 54.1L119.93 53.69L120.93 53.32L121.84 53.01L120.56 56.33L119.39 59.66ZM214.38 26.5L215.8 26.58L217.24 26.69L218.7 26.83L220.17 27L221.66 27.21L223.16 27.44L224.68 27.72L226.21 28.02L227.76 28.37L229.32 28.75L230.9 29.17L232.49 29.63L234.1 30.14L235.72 30.68L237.36 31.27L239.01 31.9L240.67 32.57L242.35 33.3L244.04 34.07L245.75 34.88L247.47 35.75L249.21 36.67L250.96 37.64L251.75 38.1L252.54 38.58L253.32 39.08L254.09 39.6L254.86 40.14L255.62 40.71L256.38 41.29L257.13 41.9L257.88 42.53L258.62 43.17L259.35 43.84L260.08 44.53L260.81 45.24L261.52 45.97L262.24 46.73L262.94 47.5L263.64 48.29L264.34 49.11L265.03 49.94L265.71 50.8L266.39 51.68L267.06 52.58L267.72 53.49L268.39 54.43L269.04 55.4L269.69 56.38L270.33 57.38L270.97 58.4L271.6 59.45L272.23 60.51L272.85 61.6L273.46 62.71L274.07 63.83L274.68 64.98L275.27 66.15L275.87 67.34L276.45 68.55L277.03 69.78L277.61 71.04L278.18 72.31L283.58 72.31L285.04 62.93L286.49 47.78L392.17 107.65L392.17 311.39L391.05 312.28L389.87 313.18L388.62 314.11L387.31 315.07L385.94 316.04L384.5 317.04L383 318.06L381.43 319.11L379.8 320.18L378.11 321.27L376.35 322.38L374.52 323.52L372.63 324.68L370.68 325.86L368.66 327.06L366.58 328.29L364.43 329.54L362.22 330.81L359.95 332.11L357.61 333.43L355.2 334.77L352.74 336.14L350.2 337.52L347.61 338.93L344.95 340.37L342.22 341.82L339.43 343.3L336.58 344.81L333.66 346.33L330.67 347.88L327.63 349.45L324.51 351.04L321.34 352.66L318.1 354.3L314.79 355.96L311.42 357.65L307.99 359.35L304.49 361.08L300.93 362.84L297.3 364.61L299.3 360.58L301.12 356.54L302.76 352.5L304.24 348.46L305.54 344.42L306.67 340.38L307.63 336.33L308.41 332.28L309.03 328.23L309.46 324.18L309.73 320.12L309.83 316.07L309.75 312.01L309.5 307.95L309.07 303.88L308.48 299.82L307.71 295.75L306.77 291.68L305.66 287.61L304.37 283.53L302.91 279.46L301.28 275.38L299.48 271.3L297.5 267.22L295.35 263.13L293.03 259.05L290.54 254.96L287.87 250.87L285.03 246.78L282.02 242.68L278.84 238.59L275.48 234.49L271.95 230.39L268.25 226.28L264.38 222.18L260.33 218.07L256.11 213.96L251.72 209.85L247.16 205.74L242.42 201.62L238.84 198.84L235.33 196.08L231.9 193.33L228.54 190.6L225.26 187.89L222.06 185.19L218.92 182.5L215.87 179.83L212.89 177.18L209.98 174.54L207.15 171.92L204.39 169.31L201.71 166.72L199.1 164.15L196.57 161.59L194.11 159.04L191.73 156.52L189.42 154L187.19 151.5L185.03 149.02L182.95 146.56L180.94 144.11L179.01 141.67L177.15 139.25L175.36 136.85L173.65 134.46L172.02 132.09L170.46 129.73L168.98 127.39L167.57 125.06L166.23 122.75L164.98 120.46L163.79 118.18L162.68 115.92L161.65 113.67L160.69 111.44L159.8 109.22L158.99 107.02L158.26 104.83L157.6 102.66L156.73 99.46L155.98 96.32L155.36 93.25L154.86 90.25L154.48 87.32L154.22 84.46L154.06 81.66L154.02 78.94L154.08 76.29L154.24 73.71L154.51 71.19L154.87 68.75L155.32 66.37L155.87 64.07L156.51 61.83L157.23 59.67L158.03 57.57L158.91 55.55L159.87 53.59L160.91 51.7L162.01 49.89L163.19 48.14L164.43 46.46L165.73 44.86L167.09 43.32L168.5 41.85L169.97 40.45L171.49 39.13L173.06 37.87L174.67 36.68L176.32 35.57L178.01 34.52L179.74 33.54L181.5 32.63L183.29 31.8L185.11 31.03L186.95 30.34L188.82 29.71L190.7 29.15L192.59 28.67L193.74 28.4L194.91 28.15L196.09 27.91L197.29 27.69L198.51 27.48L199.74 27.28L200.99 27.11L202.26 26.95L203.54 26.81L204.84 26.69L206.16 26.59L207.49 26.51L208.83 26.46L210.2 26.43L211.57 26.43L212.97 26.45L214.38 26.5ZM297.57 134.13L297.57 164.22L268.36 154.93L268.36 197.91L277.18 197.91L277.18 166.92L297.57 173.25L297.57 212.1L306.39 212.1L306.39 145.98L328.84 153L328.02 197.5L337.39 197.5L337.39 126L356.84 133.72L356.54 187.72L365.49 187.31L365.49 127.93L328.84 112.33L328.84 143.36L297.57 134.13ZM301.19 96.06L273.36 130.31L261.92 94.62L217.29 133.34L224.73 142.09L257.51 112.67L270.46 150.36L309.34 100.9L314.67 105.21L317.42 80.48L295.29 90.75L301.19 96.06Z" id="j21ggWghnW" />
    </defs>
    <g>
        <g>
            <g>
                <use xlink:href="#j21ggWghnW" opacity="1" fill="currentColor" fill-opacity="1" />
                <g>
                    <use xlink:href="#j21ggWghnW" opacity="1" fill-opacity="0" stroke="#000000" stroke-width="0" stroke-opacity="1" />
                </g>
            </g>
        </g>
    </g>
</svg>